HIERARCHY
ROOT Hips
{
	OFFSET 0.00000 0.00000 0.00000
	CHANNELS 6 Xposition Yposition Zposition Zrotation Yrotation Xrotation 
	JOINT LHipJoint
	{
		OFFSET 0 0 0
		CHANNELS 3 Zrotation Yrotation Xrotation
		JOINT LeftHip
		{
			OFFSET 1.30186 -1.90722 0.65024
			CHANNELS 3 Zrotation Yrotation Xrotation
			JOINT LeftKnee
			{
				OFFSET 2.56413 -7.04489 0.00000
				CHANNELS 3 Zrotation Yrotation Xrotation
				JOINT LeftAnkle
				{
					OFFSET 2.79321 -7.67428 0.00000
					CHANNELS 3 Zrotation Yrotation Xrotation
					JOINT LeftToe
					{
						OFFSET 0.15723 -0.43198 2.08537
						CHANNELS 3 Zrotation Yrotation Xrotation
						End Site
						{
							OFFSET 0.00000 -0.00000 1.07411
						}
					}
				}
			}
		}
	}
	JOINT RHipJoint
	{
		OFFSET 0 0 0
		CHANNELS 3 Zrotation Yrotation Xrotation
		JOINT RightHip
		{
			OFFSET -1.28627 -1.90723 0.65024
			CHANNELS 3 Zrotation Yrotation Xrotation
			JOINT RightKnee
			{
				OFFSET -2.56567 -7.04913 0.00000
				CHANNELS 3 Zrotation Yrotation Xrotation
				JOINT RightAnkle
				{
					OFFSET -2.75597 -7.57198 0.00000
					CHANNELS 3 Zrotation Yrotation Xrotation
					JOINT RightToe
					{
						OFFSET -0.17500 -0.48081 2.22901
						CHANNELS 3 Zrotation Yrotation Xrotation
						End Site
						{
							OFFSET -0.00000 -0.00000 1.14762
						}
					}
				}
			}
		}
	}
	JOINT lowerback
	{
		OFFSET 0 0 0
		CHANNELS 3 Zrotation Yrotation Xrotation
		JOINT Chest
		{
			OFFSET -0.04522 2.07467 -0.16566
			CHANNELS 3 Zrotation Yrotation Xrotation
			JOINT Chest2
			{
				OFFSET -0.01178 2.08825 -0.05393
				CHANNELS 3 Zrotation Yrotation Xrotation
				JOINT lowerneck
				{
					OFFSET 0 0 0
					CHANNELS 3 Zrotation Yrotation Xrotation
					JOINT Neck
					{
						OFFSET -0.05182 1.80489 0.16014
						CHANNELS 3 Zrotation Yrotation Xrotation
						JOINT Head
						{
							OFFSET 0.14739 1.78840 -0.33342
							CHANNELS 3 Zrotation Yrotation Xrotation
							End Site
							{
								OFFSET 0.04364 1.83899 -0.13460
							}
						}
					}
				}
				JOINT LeftCollar
				{
					OFFSET 0 0 0
					CHANNELS 3 Zrotation Yrotation Xrotation
					JOINT LeftShoulder
					{
						OFFSET 3.01264 1.29090 -0.06579
CHANNELS 3 Zrotation Xrotation Yrotation
						JOINT LeftElbow
						{
OFFSET 0 -5.556800 0.000000
CHANNELS 3 Zrotation Xrotation Yrotation
							JOINT LeftWrist
							{
OFFSET 0 -3.639790 -0.000000
CHANNELS 3 Zrotation Xrotation Yrotation
								JOINT lhand
								{
									OFFSET 0 0 0
CHANNELS 3 Zrotation Xrotation Yrotation
									JOINT LFingers
									{
OFFSET 0 -0.569420 -0.000000
CHANNELS 3 Zrotation Xrotation Yrotation
										End Site
										{
OFFSET 0 -0.459080 -0.000000
										}
									}
								}
								JOINT LThumb
								{
OFFSET 0 0.000000 0.000000
CHANNELS 3 Zrotation Xrotation Yrotation
									End Site
									{
OFFSET 0 -0.466090 0.466090
									}
								}
							}
						}
					}
				}
				JOINT RightCollar
				{
					OFFSET 0 0 0
					CHANNELS 3 Zrotation Yrotation Xrotation
					JOINT RightShoulder
					{
						OFFSET -3.15796 1.37283 -0.36748
CHANNELS 3 Zrotation Xrotation Yrotation
						JOINT RightElbow
						{
OFFSET 0 -5.343390 0.000000
CHANNELS 3 Zrotation Xrotation Yrotation
							JOINT RightWrist
							{
OFFSET 0 -3.651010 -0.000000
CHANNELS 3 Zrotation Xrotation Yrotation
								JOINT rhand
								{
									OFFSET 0 0 0
CHANNELS 3 Zrotation Xrotation Yrotation
									JOINT RFingers
									{
OFFSET 0 -0.694250 -0.000000
CHANNELS 3 Zrotation Xrotation Yrotation
										End Site
										{
OFFSET 0 -0.559720 -0.000000
										}
									}
								}
								JOINT RThumb
								{
OFFSET 0 0.000000 0.000000
CHANNELS 3 Zrotation Xrotation Yrotation
									End Site
									{
OFFSET 0 -0.568270 0.568270
									}
								}
							}
						}
					}
				}
			}
		}
	}
}
MOTION
Frames: 12
Frame Time: 0.008333333333333333
18.934700 18.016000 -16.961300 4.618900 0.897100 -0.389600 0.000000 0.000000 0.000000 -28.782100 -6.575400 -10.952900 2.325500 9.513500 27.415200 0.532900 -5.485100 -13.012700 0.370500 -3.909900 -10.823300 0.000000 0.000000 0.000000 10.922300 7.136000 -26.821700 -15.145800 -19.425400 75.675500 -0.019400 -1.088600 -3.268300 -0.018100 -0.868200 2.386200 -4.566900 0.482400 2.234100 -0.953700 0.538700 0.773700 1.566100 0.267700 -0.490900 -3.652000 -5.033800 -10.038800 1.936400 -6.485200 10.981300 0.709400 -3.199400 5.130300 0.000000 -0.000000 0.000000 -2.704100 7.730700 16.422100 5.814900 -9.953100 0.506800 23.170400 26.697300 -18.873500 0.000000 0.000000 0.000000 -7.125000 0.000000 0.000000 -5.034200 50.310600 0.660400 0.000000 -0.000000 0.000000 -6.704700 -21.897500 22.288200 -21.131300 -31.981300 -6.119300 -16.801600 -18.802600 -28.916300 0.000000 0.000000 0.000000 7.125000 0.000000 -0.000000 8.101700 0.256300 8.147300
18.937682 18.010418 -16.902158 4.797168 0.989426 -0.367962 0.000000 0.000000 0.000000 -29.027195 -6.555520 -10.741295 2.328750 9.519655 27.434774 0.546510 -5.574865 -13.178658 0.375585 -3.936203 -10.897199 0.000000 0.000000 0.000000 10.614354 7.201642 -27.377876 -15.130126 -19.421615 75.628324 -0.030869 -0.859371 -3.703362 -0.012289 -0.668140 1.836256 -4.750941 0.403684 2.275848 -0.943951 0.429208 0.825923 1.681900 0.211234 -0.454543 -3.827516 -5.007842 -10.333977 1.998410 -6.420896 11.088001 0.752753 -3.168357 5.218956 0.000000 0.000000 0.000000 -2.708496 7.301067 15.432507 5.872704 -10.049632 0.516893 23.391333 26.051551 -18.699017 0.000000 0.000000 0.000000 -7.125000 0.000000 0.000000 -4.773086 50.161654 0.610051 0.000000 0.000000 0.000000 -6.608474 -21.592192 22.331859 -21.013894 -31.844168 -6.057443 -17.185127 -19.144341 -29.607085 0.000000 0.000000 0.000000 7.125000 0.000000 0.000000 7.952410 -0.505593 8.096110
18.940664 18.004837 -16.843015 4.975437 1.081753 -0.346323 0.000000 0.000000 0.000000 -29.272290 -6.535640 -10.529690 2.331999 9.525810 27.454348 0.560120 -5.664630 -13.344616 0.380669 -3.962505 -10.971099 0.000000 0.000000 0.000000 10.306409 7.267283 -27.934051 -15.114451 -19.417830 75.581147 -0.042338 -0.630141 -4.138424 -0.006478 -0.468081 1.286312 -4.934982 0.324967 2.317595 -0.934203 0.319716 0.878145 1.797700 0.154767 -0.418186 -4.003031 -4.981883 -10.629154 2.060419 -6.356593 11.194702 0.796107 -3.137314 5.307613 0.000000 0.000000 0.000000 -2.712893 6.871434 14.442913 5.930509 -10.146163 0.526986 23.612267 25.405801 -18.524533 0.000000 0.000000 0.000000 -7.125000 0.000000 0.000000 -4.511973 50.012709 0.559701 0.000000 0.000000 0.000000 -6.512248 -21.286884 22.375518 -20.896489 -31.707035 -5.995586 -17.568654 -19.486083 -30.297870 0.000000 0.000000 0.000000 7.125000 0.000000 0.000000 7.803121 -1.267487 8.044919
18.943337 17.998579 -16.784211 5.141041 1.176107 -0.335071 0.000000 0.000000 0.000000 -29.501122 -6.501554 -10.323550 2.336659 9.534654 27.482502 0.573715 -5.772010 -13.509487 0.385269 -3.986148 -11.037594 0.000000 0.000000 0.000000 10.023923 7.325888 -28.466545 -15.085687 -19.410784 75.494569 -0.054248 -0.408610 -4.552154 -0.005530 -0.157294 0.432099 -5.108078 0.263528 2.355479 -0.942494 0.230763 0.860747 1.888231 0.111435 -0.452155 -4.060342 -4.945230 -10.589622 2.060168 -6.299738 11.198021 0.810518 -3.112162 5.302378 0.000000 0.000000 0.000000 -2.663505 6.449910 13.946986 5.923261 -10.134010 0.525796 23.653851 25.226334 -18.360554 0.000000 0.000000 0.000000 -7.125000 0.000000 0.000000 -4.429842 49.845634 0.529229 0.000000 0.000000 0.000000 -6.392193 -20.777810 22.385740 -20.818191 -31.615534 -5.954341 -17.781911 -19.677240 -30.738508 0.000000 0.000000 0.000000 7.125000 0.000000 0.000000 7.726023 -1.747853 8.030603
18.945517 17.991239 -16.725948 5.286355 1.273709 -0.340462 0.000000 0.000000 0.000000 -29.703896 -6.444706 -10.126166 2.343579 9.547805 27.524402 0.587287 -5.907613 -13.672616 0.389092 -4.005531 -11.092225 0.000000 0.000000 0.000000 9.782230 7.373217 -28.961093 -15.035949 -19.398512 75.344859 -0.066864 -0.199413 -4.931705 -0.012373 0.330908 -0.909634 -5.263638 0.229770 2.387172 -0.979693 0.174717 0.731796 1.938274 0.089147 -0.598807 -3.928256 -4.891439 -10.013796 1.960157 -6.254817 11.035695 0.778558 -3.096449 5.146704 0.000000 0.000000 0.000000 -2.527940 6.041380 14.242048 5.811781 -9.947713 0.506528 23.408067 25.793979 -18.213405 0.000000 0.000000 0.000000 -7.125000 0.000000 0.000000 -4.634489 49.649513 0.530605 0.000000 0.000000 0.000000 -6.233958 -19.942247 22.342387 -20.802555 -31.597145 -5.946122 -17.722348 -19.627120 -30.778344 0.000000 0.000000 0.000000 7.125000 0.000000 0.000000 7.764598 -1.777138 8.075371
18.947696 17.983899 -16.667684 5.431668 1.371311 -0.345852 0.000000 0.000000 0.000000 -29.906670 -6.387857 -9.928783 2.350498 9.560956 27.566303 0.600859 -6.043216 -13.835745 0.392915 -4.024914 -11.146856 0.000000 0.000000 0.000000 9.540538 7.420546 -29.455641 -14.986211 -19.386240 75.195149 -0.079480 0.009783 -5.311256 -0.019216 0.819110 -2.251368 -5.419197 0.196013 2.418865 -1.016891 0.118671 0.602845 1.988318 0.066858 -0.745459 -3.796170 -4.837649 -9.437970 1.860147 -6.209896 10.873369 0.746597 -3.080737 4.991029 0.000000 0.000000 0.000000 -2.392375 5.632851 14.537111 5.700301 -9.761417 0.487259 23.162284 26.361624 -18.066256 0.000000 0.000000 0.000000 -7.125000 0.000000 0.000000 -4.839136 49.453391 0.531981 0.000000 0.000000 0.000000 -6.075722 -19.106684 22.299034 -20.786919 -31.578756 -5.937902 -17.662785 -19.577000 -30.818180 0.000000 0.000000 0.000000 7.125000 0.000000 0.000000 7.803172 -1.806422 8.120139
18.946937 17.976500 -16.610744 5.536111 1.474731 -0.336522 0.000000 0.000000 0.000000 -30.043128 -6.306474 -9.762750 2.357124 9.573402 27.606029 0.610640 -6.193040 -13.956094 0.406376 -4.091338 -11.334060 0.000000 0.000000 0.000000 9.360137 7.508570 -29.952070 -14.924280 -19.370589 75.008417 -0.094829 0.170852 -5.730092 -0.031143 1.106837 -3.043094 -5.576872 0.166810 2.476767 -1.002288 0.074085 0.653889 2.092719 0.043042 -0.721928 -3.737011 -4.849587 -9.698629 1.757903 -6.213398 10.974455 0.697536 -3.084769 5.060923 0.000000 0.000000 0.000000 -2.356916 5.450946 12.742591 5.903682 -10.100182 0.524053 22.911653 24.950047 -18.075186 0.000000 0.000000 0.000000 -7.125000 0.000000 0.000000 -5.085771 49.422750 0.556129 0.000000 0.000000 0.000000 -6.025232 -18.740943 22.236523 -20.666975 -31.436932 -5.875531 -17.764355 -19.567251 -30.673114 0.000000 0.000000 0.000000 7.125000 0.000000 0.000000 7.728478 -1.678658 8.024665
18.945293 17.969083 -16.554201 5.628247 1.579903 -0.322759 0.000000 0.000000 0.000000 -30.159616 -6.217703 -9.606158 2.363662 9.585636 27.645100 0.619280 -6.347147 -14.063559 0.422738 -4.171928 -11.561187 0.000000 0.000000 0.000000 9.198193 7.608848 -30.449065 -14.858677 -19.353921 74.810537 -0.111000 0.317427 -6.160757 -0.044600 1.334193 -3.669193 -5.735184 0.138978 2.542561 -0.972086 0.032949 0.759138 2.213488 0.018766 -0.647150 -3.699813 -4.881319 -10.211183 1.654987 -6.231481 11.154864 0.643325 -3.094747 5.198744 0.000000 0.000000 0.000000 -2.351602 5.337287 10.318823 6.201879 -10.597062 0.577728 22.659562 22.942455 -18.131117 0.000000 0.000000 0.000000 -7.125000 0.000000 0.000000 -5.345049 49.441942 0.587134 0.000000 0.000000 0.000000 -6.007187 -18.516684 22.168244 -20.515621 -31.257937 -5.796853 -17.914447 -19.569660 -30.472366 0.000000 0.000000 0.000000 7.125000 0.000000 0.000000 7.619674 -1.503602 7.886959
18.943725 17.962520 -16.497664 5.701783 1.673505 -0.298572 0.000000 0.000000 0.000000 -30.254560 -6.131048 -9.461674 2.370158 9.597806 27.683955 0.628429 -6.487470 -14.175179 0.441654 -4.263280 -11.818890 0.000000 0.000000 0.000000 9.056530 7.729852 -30.949256 -14.788019 -19.335786 74.597289 -0.126815 0.455477 -6.574588 -0.056999 1.539520 -4.234676 -5.874354 0.112993 2.595793 -0.935048 -0.004588 0.857386 2.330501 -0.003641 -0.572780 -3.693986 -4.915504 -10.683292 1.580211 -6.252666 11.315693 0.603769 -3.105981 5.325760 0.000000 0.000000 0.000000 -2.370963 5.240889 8.002684 6.516799 -11.120546 0.636043 22.443026 21.061652 -18.203479 0.000000 0.000000 0.000000 -7.125000 0.000000 0.000000 -5.574072 49.484067 0.618092 0.000000 0.000000 0.000000 -5.990901 -18.274405 22.114122 -20.370397 -31.085966 -5.721459 -18.113744 -19.620408 -30.270841 0.000000 0.000000 0.000000 7.125000 0.000000 0.000000 7.482216 -1.336731 7.720710
18.942578 17.960684 -16.441159 5.672231 1.702981 -0.216607 0.000000 0.000000 0.000000 -30.230093 -6.056116 -9.384295 2.376428 9.609619 27.721612 0.640395 -6.551391 -14.309827 0.474724 -4.414290 -12.246077 0.000000 0.000000 0.000000 9.027284 7.965733 -31.467163 -14.689346 -19.309522 74.298863 -0.140655 0.546274 -6.895112 -0.063537 1.622748 -4.464173 -5.907424 0.097242 2.579392 -0.860116 -0.022174 0.916834 2.426689 -0.015683 -0.500677 -3.862047 -4.963292 -10.931216 1.661412 -6.291050 11.367992 0.645440 -3.124179 5.392893 0.000000 0.000000 0.000000 -2.527096 5.240163 6.283120 6.924411 -11.791489 0.720073 22.423567 19.883621 -18.366914 0.000000 0.000000 0.000000 -7.125000 0.000000 0.000000 -5.635394 49.653313 0.648791 0.000000 0.000000 0.000000 -5.984363 -17.932243 22.138475 -20.259146 -30.952924 -5.664266 -18.585775 -19.939096 -30.065009 0.000000 0.000000 0.000000 7.125000 0.000000 0.000000 7.185931 -1.215235 7.396249
18.941431 17.958849 -16.384655 5.642679 1.732456 -0.134641 0.000000 0.000000 0.000000 -30.205626 -5.981184 -9.306917 2.382698 9.621432 27.759269 0.652361 -6.615312 -14.444474 0.507793 -4.565300 -12.673263 0.000000 0.000000 0.000000 8.998038 8.201615 -31.985070 -14.590674 -19.283257 74.000436 -0.154494 0.637072 -7.215635 -0.070074 1.705975 -4.693670 -5.940493 0.081491 2.562992 -0.785184 -0.039760 0.976282 2.522876 -0.027726 -0.428575 -4.030108 -5.011080 -11.179140 1.742613 -6.329433 11.420292 0.687111 -3.142377 5.460026 0.000000 0.000000 0.000000 -2.683229 5.239436 4.563556 7.332024 -12.462432 0.804104 22.404107 18.705589 -18.530349 0.000000 0.000000 0.000000 -7.125000 0.000000 0.000000 -5.696715 49.822559 0.679490 0.000000 0.000000 0.000000 -5.977826 -17.590081 22.162828 -20.147896 -30.819883 -5.607073 -19.057806 -20.257785 -29.859176 0.000000 0.000000 0.000000 7.125000 0.000000 0.000000 6.889645 -1.093738 7.071787
18.941208 17.958041 -16.326692 5.629575 1.748728 -0.059513 0.000000 0.000000 0.000000 -30.207524 -5.916602 -9.204959 2.388701 9.632691 27.795201 0.669933 -6.642128 -14.633044 0.533696 -4.680273 -12.999072 0.000000 0.000000 0.000000 8.944787 8.437476 -32.463777 -14.475738 -19.251531 73.651886 -0.162214 0.682570 -7.393898 -0.069958 1.704931 -4.690761 -5.972494 0.045924 2.533367 -0.740192 -0.084841 0.989837 2.588345 -0.051555 -0.393824 -4.072047 -5.001967 -11.142953 1.762068 -6.312661 11.310001 0.703464 -3.134824 5.421099 0.000000 0.000000 0.000000 -2.774597 5.166080 3.344677 7.672058 -13.018774 0.878011 22.202920 17.835859 -18.811712 0.000000 0.000000 0.000000 -7.125000 0.000000 0.000000 -5.971346 50.084928 0.755200 0.000000 0.000000 0.000000 -5.888659 -17.116808 22.213895 -20.067077 -30.723002 -5.565631 -19.296485 -20.459161 -29.730737 0.000000 0.000000 0.000000 7.125000 0.000000 0.000000 6.736894 -1.007602 6.901928
